<?xml version="1.0" standalone="no"?>
<!DOCTYPE svg PUBLIC "-//W3C//DTD SVG 20010904//EN"
 "http://www.w3.org/TR/2001/REC-SVG-20010904/DTD/svg10.dtd">
<svg version="1.0" xmlns="http://www.w3.org/2000/svg"
 width="512.000000pt" height="512.000000pt" viewBox="0 0 512.000000 512.000000"
 preserveAspectRatio="xMidYMid meet">
<metadata>
Created by potrace 1.14, written by Peter Selinger 2001-2017
</metadata>
<g transform="translate(0.000000,512.000000) scale(0.100000,-0.100000)"
fill="#000000" stroke="none">
<path d="M0 2560 l0 -2560 2560 0 2560 0 0 2560 0 2560 -2560 0 -2560 0 0
-2560z m2820 556 c0 -1453 2 -1400 -57 -1581 -85 -263 -266 -458 -547 -591
-159 -74 -313 -114 -522 -135 -236 -23 -862 6 -1064 49 l-35 8 -3 362 -2 362
50 0 c32 0 88 -13 152 -35 183 -64 222 -70 448 -70 218 0 267 7 370 52 128 56
202 139 246 276 36 115 43 302 44 1225 l0 752 -415 0 -415 0 0 330 0 330 875
0 875 0 0 -1334z m1167 1220 c168 -46 259 -140 284 -293 13 -81 2 -171 -32
-250 -47 -110 -188 -265 -372 -407 l-98 -76 285 0 286 0 0 -125 0 -125 -500 0
-500 0 0 109 0 108 113 86 c257 195 409 343 459 447 26 54 35 148 18 190 -17
41 -71 87 -117 99 -94 26 -212 4 -342 -65 -46 -24 -87 -44 -92 -44 -5 0 -9 65
-9 144 l0 144 28 11 c48 19 180 52 244 61 85 12 281 4 345 -14z m23 -2036
c184 -52 272 -160 257 -319 -10 -110 -74 -198 -181 -247 l-60 -27 63 -17 c79
-22 137 -64 176 -125 26 -42 30 -60 34 -131 8 -200 -98 -331 -324 -400 -48
-15 -94 -19 -230 -19 -176 0 -266 13 -385 53 l-55 19 -3 141 c-3 158 -2 159
60 123 18 -11 76 -35 128 -53 87 -30 106 -33 215 -33 108 0 125 2 170 25 72
36 98 79 93 153 -8 107 -64 137 -257 137 l-111 0 0 114 0 113 118 5 c172 8
221 35 230 128 4 46 2 52 -29 83 -82 82 -293 74 -488 -18 -40 -19 -77 -35 -82
-35 -5 0 -9 62 -9 138 0 161 -11 145 131 181 134 34 195 40 334 36 92 -3 152
-10 205 -25z"/>
</g>
</svg>
